<mxfile host="app.diagrams.net" modified="2024-04-06T23:33:09.792Z" agent="Mozilla/5.0 (Macintosh; Intel Mac OS X 10_15_7) AppleWebKit/537.36 (KHTML, like Gecko) Chrome/123.0.0.0 Safari/537.36" etag="uV22gPAsS57IPoWQ96W9" version="24.2.2" type="device">
  <diagram name="Page-1" id="HKCf0ttzn8_PCJtN2dw7">
    <mxGraphModel dx="481" dy="292" grid="1" gridSize="10" guides="1" tooltips="1" connect="1" arrows="1" fold="1" page="1" pageScale="1" pageWidth="850" pageHeight="1100" math="0" shadow="0">
      <root>
        <mxCell id="0" />
        <mxCell id="1" parent="0" />
        <mxCell id="pQo0fo5ogEPFuPqu64le-1" value="" style="group" vertex="1" connectable="0" parent="1">
          <mxGeometry x="268" y="610" width="40" height="60" as="geometry" />
        </mxCell>
        <mxCell id="pQo0fo5ogEPFuPqu64le-2" value="" style="ellipse;whiteSpace=wrap;html=1;strokeWidth=0.5;" vertex="1" parent="pQo0fo5ogEPFuPqu64le-1">
          <mxGeometry x="15" width="10" height="10" as="geometry" />
        </mxCell>
        <mxCell id="pQo0fo5ogEPFuPqu64le-3" value="" style="ellipse;whiteSpace=wrap;html=1;strokeWidth=0.5;" vertex="1" parent="pQo0fo5ogEPFuPqu64le-1">
          <mxGeometry y="15" width="10" height="10" as="geometry" />
        </mxCell>
        <mxCell id="pQo0fo5ogEPFuPqu64le-4" value="" style="ellipse;whiteSpace=wrap;html=1;strokeWidth=0.5;" vertex="1" parent="pQo0fo5ogEPFuPqu64le-1">
          <mxGeometry x="30" y="15" width="10" height="10" as="geometry" />
        </mxCell>
        <mxCell id="pQo0fo5ogEPFuPqu64le-5" value="" style="ellipse;whiteSpace=wrap;html=1;strokeWidth=0.5;" vertex="1" parent="pQo0fo5ogEPFuPqu64le-1">
          <mxGeometry y="50" width="10" height="10" as="geometry" />
        </mxCell>
        <mxCell id="pQo0fo5ogEPFuPqu64le-6" value="" style="ellipse;whiteSpace=wrap;html=1;strokeWidth=0.5;" vertex="1" parent="pQo0fo5ogEPFuPqu64le-1">
          <mxGeometry x="15" y="30" width="10" height="10" as="geometry" />
        </mxCell>
        <mxCell id="pQo0fo5ogEPFuPqu64le-7" value="" style="endArrow=none;dashed=1;html=1;rounded=0;exitX=1;exitY=1;exitDx=0;exitDy=0;entryX=0;entryY=0;entryDx=0;entryDy=0;strokeWidth=0.5;" edge="1" parent="pQo0fo5ogEPFuPqu64le-1" source="pQo0fo5ogEPFuPqu64le-2" target="pQo0fo5ogEPFuPqu64le-4">
          <mxGeometry width="50" height="50" relative="1" as="geometry">
            <mxPoint x="135" y="20" as="sourcePoint" />
            <mxPoint x="185" y="-30" as="targetPoint" />
          </mxGeometry>
        </mxCell>
        <mxCell id="pQo0fo5ogEPFuPqu64le-8" value="" style="endArrow=none;dashed=1;html=1;rounded=0;exitX=0;exitY=0.5;exitDx=0;exitDy=0;entryX=1;entryY=0.5;entryDx=0;entryDy=0;strokeWidth=0.5;" edge="1" parent="pQo0fo5ogEPFuPqu64le-1" source="pQo0fo5ogEPFuPqu64le-4" target="pQo0fo5ogEPFuPqu64le-3">
          <mxGeometry width="50" height="50" relative="1" as="geometry">
            <mxPoint x="34" y="19" as="sourcePoint" />
            <mxPoint x="41" y="26" as="targetPoint" />
          </mxGeometry>
        </mxCell>
        <mxCell id="pQo0fo5ogEPFuPqu64le-9" value="" style="endArrow=none;dashed=1;html=1;rounded=0;exitX=0;exitY=1;exitDx=0;exitDy=0;entryX=1;entryY=0;entryDx=0;entryDy=0;strokeWidth=0.5;" edge="1" parent="pQo0fo5ogEPFuPqu64le-1" source="pQo0fo5ogEPFuPqu64le-4" target="pQo0fo5ogEPFuPqu64le-6">
          <mxGeometry width="50" height="50" relative="1" as="geometry">
            <mxPoint x="44" y="29" as="sourcePoint" />
            <mxPoint x="51" y="36" as="targetPoint" />
          </mxGeometry>
        </mxCell>
        <mxCell id="pQo0fo5ogEPFuPqu64le-10" value="" style="endArrow=none;dashed=1;html=1;rounded=0;exitX=0.882;exitY=0.984;exitDx=0;exitDy=0;entryX=0.149;entryY=0.269;entryDx=0;entryDy=0;strokeWidth=0.5;entryPerimeter=0;exitPerimeter=0;" edge="1" parent="pQo0fo5ogEPFuPqu64le-1" source="pQo0fo5ogEPFuPqu64le-3" target="pQo0fo5ogEPFuPqu64le-6">
          <mxGeometry width="50" height="50" relative="1" as="geometry">
            <mxPoint x="8" y="25" as="sourcePoint" />
            <mxPoint x="15" y="32" as="targetPoint" />
          </mxGeometry>
        </mxCell>
        <mxCell id="pQo0fo5ogEPFuPqu64le-11" value="" style="endArrow=none;dashed=1;html=1;rounded=0;exitX=0.5;exitY=1;exitDx=0;exitDy=0;entryX=0.5;entryY=0;entryDx=0;entryDy=0;strokeWidth=0.5;startArrow=classic;startFill=1;jumpSize=2;endSize=3;startSize=1;" edge="1" parent="pQo0fo5ogEPFuPqu64le-1" source="pQo0fo5ogEPFuPqu64le-3" target="pQo0fo5ogEPFuPqu64le-5">
          <mxGeometry width="50" height="50" relative="1" as="geometry">
            <mxPoint x="64" y="49" as="sourcePoint" />
            <mxPoint x="71" y="56" as="targetPoint" />
          </mxGeometry>
        </mxCell>
        <mxCell id="pQo0fo5ogEPFuPqu64le-12" value="" style="endArrow=classic;dashed=1;html=1;rounded=0;exitX=1;exitY=0;exitDx=0;exitDy=0;entryX=0;entryY=1;entryDx=0;entryDy=0;strokeWidth=0.5;endFill=1;endSize=1;" edge="1" parent="pQo0fo5ogEPFuPqu64le-1" source="pQo0fo5ogEPFuPqu64le-5" target="pQo0fo5ogEPFuPqu64le-6">
          <mxGeometry width="50" height="50" relative="1" as="geometry">
            <mxPoint x="74" y="59" as="sourcePoint" />
            <mxPoint x="81" y="66" as="targetPoint" />
          </mxGeometry>
        </mxCell>
        <mxCell id="pQo0fo5ogEPFuPqu64le-13" value="&lt;font style=&quot;font-size: 5px;&quot;&gt;E&lt;/font&gt;" style="text;html=1;align=center;verticalAlign=middle;whiteSpace=wrap;rounded=0;" vertex="1" parent="pQo0fo5ogEPFuPqu64le-1">
          <mxGeometry y="48" width="10" height="10" as="geometry" />
        </mxCell>
        <mxCell id="pQo0fo5ogEPFuPqu64le-15" value="" style="group" vertex="1" connectable="0" parent="1">
          <mxGeometry x="448" y="610" width="40" height="60" as="geometry" />
        </mxCell>
        <mxCell id="pQo0fo5ogEPFuPqu64le-16" value="" style="ellipse;whiteSpace=wrap;html=1;strokeWidth=0.5;fillColor=#fad9d5;strokeColor=#ae4132;" vertex="1" parent="pQo0fo5ogEPFuPqu64le-15">
          <mxGeometry x="15" width="10" height="10" as="geometry" />
        </mxCell>
        <mxCell id="pQo0fo5ogEPFuPqu64le-17" value="" style="ellipse;whiteSpace=wrap;html=1;strokeWidth=0.5;fillColor=#fad9d5;strokeColor=#ae4132;" vertex="1" parent="pQo0fo5ogEPFuPqu64le-15">
          <mxGeometry y="15" width="10" height="10" as="geometry" />
        </mxCell>
        <mxCell id="pQo0fo5ogEPFuPqu64le-18" value="" style="ellipse;whiteSpace=wrap;html=1;strokeWidth=0.5;fillColor=#fad9d5;strokeColor=#ae4132;" vertex="1" parent="pQo0fo5ogEPFuPqu64le-15">
          <mxGeometry x="30" y="15" width="10" height="10" as="geometry" />
        </mxCell>
        <mxCell id="pQo0fo5ogEPFuPqu64le-19" value="" style="ellipse;whiteSpace=wrap;html=1;strokeWidth=0.5;" vertex="1" parent="pQo0fo5ogEPFuPqu64le-15">
          <mxGeometry y="50" width="10" height="10" as="geometry" />
        </mxCell>
        <mxCell id="pQo0fo5ogEPFuPqu64le-20" value="" style="ellipse;whiteSpace=wrap;html=1;strokeWidth=0.5;fillColor=#fad9d5;strokeColor=#ae4132;" vertex="1" parent="pQo0fo5ogEPFuPqu64le-15">
          <mxGeometry x="15" y="30" width="10" height="10" as="geometry" />
        </mxCell>
        <mxCell id="pQo0fo5ogEPFuPqu64le-21" value="" style="endArrow=none;html=1;rounded=0;exitX=1;exitY=1;exitDx=0;exitDy=0;entryX=0;entryY=0;entryDx=0;entryDy=0;strokeWidth=0.5;" edge="1" parent="pQo0fo5ogEPFuPqu64le-15" source="pQo0fo5ogEPFuPqu64le-16" target="pQo0fo5ogEPFuPqu64le-18">
          <mxGeometry width="50" height="50" relative="1" as="geometry">
            <mxPoint x="135" y="20" as="sourcePoint" />
            <mxPoint x="185" y="-30" as="targetPoint" />
          </mxGeometry>
        </mxCell>
        <mxCell id="pQo0fo5ogEPFuPqu64le-22" value="" style="endArrow=none;html=1;rounded=0;exitX=0;exitY=0.5;exitDx=0;exitDy=0;entryX=1;entryY=0.5;entryDx=0;entryDy=0;strokeWidth=0.5;" edge="1" parent="pQo0fo5ogEPFuPqu64le-15" source="pQo0fo5ogEPFuPqu64le-18" target="pQo0fo5ogEPFuPqu64le-17">
          <mxGeometry width="50" height="50" relative="1" as="geometry">
            <mxPoint x="34" y="19" as="sourcePoint" />
            <mxPoint x="41" y="26" as="targetPoint" />
          </mxGeometry>
        </mxCell>
        <mxCell id="pQo0fo5ogEPFuPqu64le-23" value="" style="endArrow=none;html=1;rounded=0;exitX=0;exitY=1;exitDx=0;exitDy=0;entryX=1;entryY=0;entryDx=0;entryDy=0;strokeWidth=0.5;" edge="1" parent="pQo0fo5ogEPFuPqu64le-15" source="pQo0fo5ogEPFuPqu64le-18" target="pQo0fo5ogEPFuPqu64le-20">
          <mxGeometry width="50" height="50" relative="1" as="geometry">
            <mxPoint x="44" y="29" as="sourcePoint" />
            <mxPoint x="51" y="36" as="targetPoint" />
          </mxGeometry>
        </mxCell>
        <mxCell id="pQo0fo5ogEPFuPqu64le-24" value="" style="endArrow=none;html=1;rounded=0;exitX=1;exitY=1;exitDx=0;exitDy=0;entryX=0;entryY=0;entryDx=0;entryDy=0;strokeWidth=0.5;" edge="1" parent="pQo0fo5ogEPFuPqu64le-15" source="pQo0fo5ogEPFuPqu64le-17" target="pQo0fo5ogEPFuPqu64le-20">
          <mxGeometry width="50" height="50" relative="1" as="geometry">
            <mxPoint x="8" y="25" as="sourcePoint" />
            <mxPoint x="15" y="32" as="targetPoint" />
          </mxGeometry>
        </mxCell>
        <mxCell id="pQo0fo5ogEPFuPqu64le-25" value="" style="endArrow=none;dashed=1;html=1;rounded=0;exitX=0.5;exitY=1;exitDx=0;exitDy=0;entryX=0.5;entryY=0;entryDx=0;entryDy=0;strokeWidth=0.5;startArrow=classic;startFill=1;jumpSize=2;endSize=3;startSize=1;" edge="1" parent="pQo0fo5ogEPFuPqu64le-15" source="pQo0fo5ogEPFuPqu64le-17" target="pQo0fo5ogEPFuPqu64le-19">
          <mxGeometry width="50" height="50" relative="1" as="geometry">
            <mxPoint x="64" y="49" as="sourcePoint" />
            <mxPoint x="71" y="56" as="targetPoint" />
          </mxGeometry>
        </mxCell>
        <mxCell id="pQo0fo5ogEPFuPqu64le-26" value="" style="endArrow=classic;dashed=1;html=1;rounded=0;exitX=1;exitY=0;exitDx=0;exitDy=0;entryX=0;entryY=1;entryDx=0;entryDy=0;strokeWidth=0.5;endFill=1;endSize=1;" edge="1" parent="pQo0fo5ogEPFuPqu64le-15" source="pQo0fo5ogEPFuPqu64le-19" target="pQo0fo5ogEPFuPqu64le-20">
          <mxGeometry width="50" height="50" relative="1" as="geometry">
            <mxPoint x="74" y="59" as="sourcePoint" />
            <mxPoint x="81" y="66" as="targetPoint" />
          </mxGeometry>
        </mxCell>
        <mxCell id="pQo0fo5ogEPFuPqu64le-27" value="&lt;font style=&quot;font-size: 5px;&quot;&gt;E&lt;/font&gt;" style="text;html=1;align=center;verticalAlign=middle;whiteSpace=wrap;rounded=0;" vertex="1" parent="pQo0fo5ogEPFuPqu64le-15">
          <mxGeometry y="48" width="10" height="10" as="geometry" />
        </mxCell>
        <mxCell id="pQo0fo5ogEPFuPqu64le-28" value="" style="group" vertex="1" connectable="0" parent="1">
          <mxGeometry x="628" y="610" width="40" height="60" as="geometry" />
        </mxCell>
        <mxCell id="pQo0fo5ogEPFuPqu64le-29" value="" style="ellipse;whiteSpace=wrap;html=1;strokeWidth=0.5;" vertex="1" parent="pQo0fo5ogEPFuPqu64le-28">
          <mxGeometry x="15" width="10" height="10" as="geometry" />
        </mxCell>
        <mxCell id="pQo0fo5ogEPFuPqu64le-30" value="" style="ellipse;whiteSpace=wrap;html=1;strokeWidth=0.5;" vertex="1" parent="pQo0fo5ogEPFuPqu64le-28">
          <mxGeometry y="15" width="10" height="10" as="geometry" />
        </mxCell>
        <mxCell id="pQo0fo5ogEPFuPqu64le-31" value="" style="ellipse;whiteSpace=wrap;html=1;strokeWidth=0.5;" vertex="1" parent="pQo0fo5ogEPFuPqu64le-28">
          <mxGeometry x="30" y="15" width="10" height="10" as="geometry" />
        </mxCell>
        <mxCell id="pQo0fo5ogEPFuPqu64le-32" value="" style="ellipse;whiteSpace=wrap;html=1;strokeWidth=0.5;" vertex="1" parent="pQo0fo5ogEPFuPqu64le-28">
          <mxGeometry y="50" width="10" height="10" as="geometry" />
        </mxCell>
        <mxCell id="pQo0fo5ogEPFuPqu64le-33" value="" style="ellipse;whiteSpace=wrap;html=1;strokeWidth=0.5;" vertex="1" parent="pQo0fo5ogEPFuPqu64le-28">
          <mxGeometry x="15" y="30" width="10" height="10" as="geometry" />
        </mxCell>
        <mxCell id="pQo0fo5ogEPFuPqu64le-34" value="" style="endArrow=none;dashed=1;html=1;rounded=0;exitX=1;exitY=1;exitDx=0;exitDy=0;entryX=0;entryY=0;entryDx=0;entryDy=0;strokeWidth=0.5;" edge="1" parent="pQo0fo5ogEPFuPqu64le-28" source="pQo0fo5ogEPFuPqu64le-29" target="pQo0fo5ogEPFuPqu64le-31">
          <mxGeometry width="50" height="50" relative="1" as="geometry">
            <mxPoint x="135" y="20" as="sourcePoint" />
            <mxPoint x="185" y="-30" as="targetPoint" />
          </mxGeometry>
        </mxCell>
        <mxCell id="pQo0fo5ogEPFuPqu64le-35" value="" style="endArrow=none;dashed=1;html=1;rounded=0;exitX=0;exitY=0.5;exitDx=0;exitDy=0;entryX=1;entryY=0.5;entryDx=0;entryDy=0;strokeWidth=0.5;" edge="1" parent="pQo0fo5ogEPFuPqu64le-28" source="pQo0fo5ogEPFuPqu64le-31" target="pQo0fo5ogEPFuPqu64le-30">
          <mxGeometry width="50" height="50" relative="1" as="geometry">
            <mxPoint x="34" y="19" as="sourcePoint" />
            <mxPoint x="41" y="26" as="targetPoint" />
          </mxGeometry>
        </mxCell>
        <mxCell id="pQo0fo5ogEPFuPqu64le-36" value="" style="endArrow=none;dashed=1;html=1;rounded=0;exitX=0;exitY=1;exitDx=0;exitDy=0;entryX=1;entryY=0;entryDx=0;entryDy=0;strokeWidth=0.5;" edge="1" parent="pQo0fo5ogEPFuPqu64le-28" source="pQo0fo5ogEPFuPqu64le-31" target="pQo0fo5ogEPFuPqu64le-33">
          <mxGeometry width="50" height="50" relative="1" as="geometry">
            <mxPoint x="44" y="29" as="sourcePoint" />
            <mxPoint x="51" y="36" as="targetPoint" />
          </mxGeometry>
        </mxCell>
        <mxCell id="pQo0fo5ogEPFuPqu64le-37" value="" style="endArrow=none;dashed=1;html=1;rounded=0;exitX=0.882;exitY=0.984;exitDx=0;exitDy=0;entryX=0.149;entryY=0.269;entryDx=0;entryDy=0;strokeWidth=0.5;entryPerimeter=0;exitPerimeter=0;" edge="1" parent="pQo0fo5ogEPFuPqu64le-28" source="pQo0fo5ogEPFuPqu64le-30" target="pQo0fo5ogEPFuPqu64le-33">
          <mxGeometry width="50" height="50" relative="1" as="geometry">
            <mxPoint x="8" y="25" as="sourcePoint" />
            <mxPoint x="15" y="32" as="targetPoint" />
          </mxGeometry>
        </mxCell>
        <mxCell id="pQo0fo5ogEPFuPqu64le-38" value="" style="endArrow=none;dashed=1;html=1;rounded=0;exitX=0.5;exitY=1;exitDx=0;exitDy=0;entryX=0.5;entryY=0;entryDx=0;entryDy=0;strokeWidth=0.5;startArrow=classic;startFill=1;jumpSize=2;endSize=3;startSize=1;" edge="1" parent="pQo0fo5ogEPFuPqu64le-28" source="pQo0fo5ogEPFuPqu64le-30" target="pQo0fo5ogEPFuPqu64le-32">
          <mxGeometry width="50" height="50" relative="1" as="geometry">
            <mxPoint x="64" y="49" as="sourcePoint" />
            <mxPoint x="71" y="56" as="targetPoint" />
          </mxGeometry>
        </mxCell>
        <mxCell id="pQo0fo5ogEPFuPqu64le-39" value="" style="endArrow=classic;dashed=1;html=1;rounded=0;exitX=1;exitY=0;exitDx=0;exitDy=0;entryX=0;entryY=1;entryDx=0;entryDy=0;strokeWidth=0.5;endFill=1;endSize=1;" edge="1" parent="pQo0fo5ogEPFuPqu64le-28" source="pQo0fo5ogEPFuPqu64le-32" target="pQo0fo5ogEPFuPqu64le-33">
          <mxGeometry width="50" height="50" relative="1" as="geometry">
            <mxPoint x="74" y="59" as="sourcePoint" />
            <mxPoint x="81" y="66" as="targetPoint" />
          </mxGeometry>
        </mxCell>
        <mxCell id="pQo0fo5ogEPFuPqu64le-40" value="&lt;font style=&quot;font-size: 5px;&quot;&gt;E&lt;/font&gt;" style="text;html=1;align=center;verticalAlign=middle;whiteSpace=wrap;rounded=0;" vertex="1" parent="pQo0fo5ogEPFuPqu64le-28">
          <mxGeometry y="48" width="10" height="10" as="geometry" />
        </mxCell>
        <mxCell id="pQo0fo5ogEPFuPqu64le-41" value="" style="group" vertex="1" connectable="0" parent="1">
          <mxGeometry x="568" y="610" width="40" height="60" as="geometry" />
        </mxCell>
        <mxCell id="pQo0fo5ogEPFuPqu64le-42" value="" style="ellipse;whiteSpace=wrap;html=1;strokeWidth=0.5;" vertex="1" parent="pQo0fo5ogEPFuPqu64le-41">
          <mxGeometry x="15" width="10" height="10" as="geometry" />
        </mxCell>
        <mxCell id="pQo0fo5ogEPFuPqu64le-43" value="" style="ellipse;whiteSpace=wrap;html=1;strokeWidth=0.5;fillColor=#fad9d5;strokeColor=#ae4132;" vertex="1" parent="pQo0fo5ogEPFuPqu64le-41">
          <mxGeometry y="15" width="10" height="10" as="geometry" />
        </mxCell>
        <mxCell id="pQo0fo5ogEPFuPqu64le-44" value="" style="ellipse;whiteSpace=wrap;html=1;strokeWidth=0.5;fillColor=#fad9d5;strokeColor=#ae4132;" vertex="1" parent="pQo0fo5ogEPFuPqu64le-41">
          <mxGeometry x="30" y="15" width="10" height="10" as="geometry" />
        </mxCell>
        <mxCell id="pQo0fo5ogEPFuPqu64le-45" value="" style="ellipse;whiteSpace=wrap;html=1;strokeWidth=0.5;" vertex="1" parent="pQo0fo5ogEPFuPqu64le-41">
          <mxGeometry y="50" width="10" height="10" as="geometry" />
        </mxCell>
        <mxCell id="pQo0fo5ogEPFuPqu64le-46" value="" style="ellipse;whiteSpace=wrap;html=1;strokeWidth=0.5;fillColor=#fad9d5;strokeColor=#ae4132;" vertex="1" parent="pQo0fo5ogEPFuPqu64le-41">
          <mxGeometry x="15" y="30" width="10" height="10" as="geometry" />
        </mxCell>
        <mxCell id="pQo0fo5ogEPFuPqu64le-47" value="" style="endArrow=none;dashed=1;html=1;rounded=0;exitX=1;exitY=1;exitDx=0;exitDy=0;entryX=0;entryY=0;entryDx=0;entryDy=0;strokeWidth=0.5;" edge="1" parent="pQo0fo5ogEPFuPqu64le-41" source="pQo0fo5ogEPFuPqu64le-42" target="pQo0fo5ogEPFuPqu64le-44">
          <mxGeometry width="50" height="50" relative="1" as="geometry">
            <mxPoint x="135" y="20" as="sourcePoint" />
            <mxPoint x="185" y="-30" as="targetPoint" />
          </mxGeometry>
        </mxCell>
        <mxCell id="pQo0fo5ogEPFuPqu64le-48" value="" style="endArrow=none;html=1;rounded=0;exitX=0;exitY=0.5;exitDx=0;exitDy=0;entryX=1;entryY=0.5;entryDx=0;entryDy=0;strokeWidth=0.5;" edge="1" parent="pQo0fo5ogEPFuPqu64le-41" source="pQo0fo5ogEPFuPqu64le-44" target="pQo0fo5ogEPFuPqu64le-43">
          <mxGeometry width="50" height="50" relative="1" as="geometry">
            <mxPoint x="34" y="19" as="sourcePoint" />
            <mxPoint x="41" y="26" as="targetPoint" />
          </mxGeometry>
        </mxCell>
        <mxCell id="pQo0fo5ogEPFuPqu64le-49" value="" style="endArrow=none;html=1;rounded=0;exitX=0;exitY=1;exitDx=0;exitDy=0;entryX=1;entryY=0;entryDx=0;entryDy=0;strokeWidth=0.5;" edge="1" parent="pQo0fo5ogEPFuPqu64le-41" source="pQo0fo5ogEPFuPqu64le-44" target="pQo0fo5ogEPFuPqu64le-46">
          <mxGeometry width="50" height="50" relative="1" as="geometry">
            <mxPoint x="44" y="29" as="sourcePoint" />
            <mxPoint x="51" y="36" as="targetPoint" />
          </mxGeometry>
        </mxCell>
        <mxCell id="pQo0fo5ogEPFuPqu64le-50" value="" style="endArrow=none;html=1;rounded=0;exitX=1;exitY=1;exitDx=0;exitDy=0;entryX=0;entryY=0;entryDx=0;entryDy=0;strokeWidth=0.5;" edge="1" parent="pQo0fo5ogEPFuPqu64le-41" source="pQo0fo5ogEPFuPqu64le-43" target="pQo0fo5ogEPFuPqu64le-46">
          <mxGeometry width="50" height="50" relative="1" as="geometry">
            <mxPoint x="8" y="25" as="sourcePoint" />
            <mxPoint x="15" y="32" as="targetPoint" />
          </mxGeometry>
        </mxCell>
        <mxCell id="pQo0fo5ogEPFuPqu64le-51" value="" style="endArrow=none;dashed=1;html=1;rounded=0;exitX=0.5;exitY=1;exitDx=0;exitDy=0;entryX=0.5;entryY=0;entryDx=0;entryDy=0;strokeWidth=0.5;startArrow=classic;startFill=1;jumpSize=2;endSize=3;startSize=1;" edge="1" parent="pQo0fo5ogEPFuPqu64le-41" source="pQo0fo5ogEPFuPqu64le-43" target="pQo0fo5ogEPFuPqu64le-45">
          <mxGeometry width="50" height="50" relative="1" as="geometry">
            <mxPoint x="64" y="49" as="sourcePoint" />
            <mxPoint x="71" y="56" as="targetPoint" />
          </mxGeometry>
        </mxCell>
        <mxCell id="pQo0fo5ogEPFuPqu64le-52" value="" style="endArrow=classic;dashed=1;html=1;rounded=0;exitX=1;exitY=0;exitDx=0;exitDy=0;entryX=0;entryY=1;entryDx=0;entryDy=0;strokeWidth=0.5;endFill=1;endSize=1;" edge="1" parent="pQo0fo5ogEPFuPqu64le-41" source="pQo0fo5ogEPFuPqu64le-45" target="pQo0fo5ogEPFuPqu64le-46">
          <mxGeometry width="50" height="50" relative="1" as="geometry">
            <mxPoint x="74" y="59" as="sourcePoint" />
            <mxPoint x="81" y="66" as="targetPoint" />
          </mxGeometry>
        </mxCell>
        <mxCell id="pQo0fo5ogEPFuPqu64le-53" value="&lt;font style=&quot;font-size: 5px;&quot;&gt;E&lt;/font&gt;" style="text;html=1;align=center;verticalAlign=middle;whiteSpace=wrap;rounded=0;" vertex="1" parent="pQo0fo5ogEPFuPqu64le-41">
          <mxGeometry y="48" width="10" height="10" as="geometry" />
        </mxCell>
        <mxCell id="pQo0fo5ogEPFuPqu64le-54" value="" style="group" vertex="1" connectable="0" parent="1">
          <mxGeometry x="328" y="610" width="40" height="60" as="geometry" />
        </mxCell>
        <mxCell id="pQo0fo5ogEPFuPqu64le-55" value="" style="ellipse;whiteSpace=wrap;html=1;strokeWidth=0.5;" vertex="1" parent="pQo0fo5ogEPFuPqu64le-54">
          <mxGeometry x="15" width="10" height="10" as="geometry" />
        </mxCell>
        <mxCell id="pQo0fo5ogEPFuPqu64le-56" value="" style="ellipse;whiteSpace=wrap;html=1;strokeWidth=0.5;fillColor=#fad9d5;strokeColor=#ae4132;" vertex="1" parent="pQo0fo5ogEPFuPqu64le-54">
          <mxGeometry y="15" width="10" height="10" as="geometry" />
        </mxCell>
        <mxCell id="pQo0fo5ogEPFuPqu64le-57" value="" style="ellipse;whiteSpace=wrap;html=1;strokeWidth=0.5;" vertex="1" parent="pQo0fo5ogEPFuPqu64le-54">
          <mxGeometry x="30" y="15" width="10" height="10" as="geometry" />
        </mxCell>
        <mxCell id="pQo0fo5ogEPFuPqu64le-58" value="" style="ellipse;whiteSpace=wrap;html=1;strokeWidth=0.5;fillColor=#878787;strokeColor=#23445d;" vertex="1" parent="pQo0fo5ogEPFuPqu64le-54">
          <mxGeometry y="50" width="10" height="10" as="geometry" />
        </mxCell>
        <mxCell id="pQo0fo5ogEPFuPqu64le-59" value="" style="ellipse;whiteSpace=wrap;html=1;strokeWidth=0.5;fillColor=#fad9d5;strokeColor=#ae4132;" vertex="1" parent="pQo0fo5ogEPFuPqu64le-54">
          <mxGeometry x="15" y="30" width="10" height="10" as="geometry" />
        </mxCell>
        <mxCell id="pQo0fo5ogEPFuPqu64le-60" value="" style="endArrow=none;dashed=1;html=1;rounded=0;exitX=1;exitY=1;exitDx=0;exitDy=0;entryX=0;entryY=0;entryDx=0;entryDy=0;strokeWidth=0.5;" edge="1" parent="pQo0fo5ogEPFuPqu64le-54" source="pQo0fo5ogEPFuPqu64le-55" target="pQo0fo5ogEPFuPqu64le-57">
          <mxGeometry width="50" height="50" relative="1" as="geometry">
            <mxPoint x="135" y="20" as="sourcePoint" />
            <mxPoint x="185" y="-30" as="targetPoint" />
          </mxGeometry>
        </mxCell>
        <mxCell id="pQo0fo5ogEPFuPqu64le-61" value="" style="endArrow=none;dashed=1;html=1;rounded=0;exitX=0;exitY=0.5;exitDx=0;exitDy=0;entryX=1;entryY=0.5;entryDx=0;entryDy=0;strokeWidth=0.5;" edge="1" parent="pQo0fo5ogEPFuPqu64le-54" source="pQo0fo5ogEPFuPqu64le-57" target="pQo0fo5ogEPFuPqu64le-56">
          <mxGeometry width="50" height="50" relative="1" as="geometry">
            <mxPoint x="34" y="19" as="sourcePoint" />
            <mxPoint x="41" y="26" as="targetPoint" />
          </mxGeometry>
        </mxCell>
        <mxCell id="pQo0fo5ogEPFuPqu64le-62" value="" style="endArrow=none;dashed=1;html=1;rounded=0;exitX=0;exitY=1;exitDx=0;exitDy=0;entryX=1;entryY=0;entryDx=0;entryDy=0;strokeWidth=0.5;" edge="1" parent="pQo0fo5ogEPFuPqu64le-54" source="pQo0fo5ogEPFuPqu64le-57" target="pQo0fo5ogEPFuPqu64le-59">
          <mxGeometry width="50" height="50" relative="1" as="geometry">
            <mxPoint x="44" y="29" as="sourcePoint" />
            <mxPoint x="51" y="36" as="targetPoint" />
          </mxGeometry>
        </mxCell>
        <mxCell id="pQo0fo5ogEPFuPqu64le-63" value="" style="endArrow=none;html=1;rounded=0;exitX=1;exitY=1;exitDx=0;exitDy=0;entryX=0;entryY=0;entryDx=0;entryDy=0;strokeWidth=0.5;" edge="1" parent="pQo0fo5ogEPFuPqu64le-54" source="pQo0fo5ogEPFuPqu64le-56" target="pQo0fo5ogEPFuPqu64le-59">
          <mxGeometry width="50" height="50" relative="1" as="geometry">
            <mxPoint x="8" y="25" as="sourcePoint" />
            <mxPoint x="15" y="32" as="targetPoint" />
          </mxGeometry>
        </mxCell>
        <mxCell id="pQo0fo5ogEPFuPqu64le-64" value="" style="endArrow=none;html=1;rounded=0;exitX=0.5;exitY=1;exitDx=0;exitDy=0;entryX=0.5;entryY=0;entryDx=0;entryDy=0;strokeWidth=0.5;startArrow=classic;startFill=1;jumpSize=2;endSize=3;startSize=1;" edge="1" parent="pQo0fo5ogEPFuPqu64le-54" source="pQo0fo5ogEPFuPqu64le-56" target="pQo0fo5ogEPFuPqu64le-58">
          <mxGeometry width="50" height="50" relative="1" as="geometry">
            <mxPoint x="64" y="49" as="sourcePoint" />
            <mxPoint x="71" y="56" as="targetPoint" />
          </mxGeometry>
        </mxCell>
        <mxCell id="pQo0fo5ogEPFuPqu64le-65" value="" style="endArrow=classic;html=1;rounded=0;exitX=1;exitY=0;exitDx=0;exitDy=0;entryX=0;entryY=1;entryDx=0;entryDy=0;strokeWidth=0.5;endFill=1;endSize=1;" edge="1" parent="pQo0fo5ogEPFuPqu64le-54" source="pQo0fo5ogEPFuPqu64le-58" target="pQo0fo5ogEPFuPqu64le-59">
          <mxGeometry width="50" height="50" relative="1" as="geometry">
            <mxPoint x="74" y="59" as="sourcePoint" />
            <mxPoint x="81" y="66" as="targetPoint" />
          </mxGeometry>
        </mxCell>
        <mxCell id="pQo0fo5ogEPFuPqu64le-66" value="&lt;font style=&quot;font-size: 5px;&quot;&gt;E&lt;/font&gt;" style="text;html=1;align=center;verticalAlign=middle;whiteSpace=wrap;rounded=0;" vertex="1" parent="pQo0fo5ogEPFuPqu64le-54">
          <mxGeometry y="48" width="10" height="10" as="geometry" />
        </mxCell>
        <mxCell id="pQo0fo5ogEPFuPqu64le-67" value="" style="group" vertex="1" connectable="0" parent="1">
          <mxGeometry x="388" y="610" width="40" height="60" as="geometry" />
        </mxCell>
        <mxCell id="pQo0fo5ogEPFuPqu64le-68" value="" style="ellipse;whiteSpace=wrap;html=1;strokeWidth=0.5;fillColor=#fad9d5;strokeColor=#ae4132;" vertex="1" parent="pQo0fo5ogEPFuPqu64le-67">
          <mxGeometry x="15" width="10" height="10" as="geometry" />
        </mxCell>
        <mxCell id="pQo0fo5ogEPFuPqu64le-69" value="" style="ellipse;whiteSpace=wrap;html=1;strokeWidth=0.5;fillColor=#fad9d5;strokeColor=#ae4132;" vertex="1" parent="pQo0fo5ogEPFuPqu64le-67">
          <mxGeometry y="15" width="10" height="10" as="geometry" />
        </mxCell>
        <mxCell id="pQo0fo5ogEPFuPqu64le-70" value="" style="ellipse;whiteSpace=wrap;html=1;strokeWidth=0.5;fillColor=#fad9d5;strokeColor=#ae4132;" vertex="1" parent="pQo0fo5ogEPFuPqu64le-67">
          <mxGeometry x="30" y="15" width="10" height="10" as="geometry" />
        </mxCell>
        <mxCell id="pQo0fo5ogEPFuPqu64le-71" value="" style="ellipse;whiteSpace=wrap;html=1;strokeWidth=0.5;fillColor=#878787;strokeColor=#23445d;" vertex="1" parent="pQo0fo5ogEPFuPqu64le-67">
          <mxGeometry y="50" width="10" height="10" as="geometry" />
        </mxCell>
        <mxCell id="pQo0fo5ogEPFuPqu64le-72" value="" style="ellipse;whiteSpace=wrap;html=1;strokeWidth=0.5;fillColor=#fad9d5;strokeColor=#ae4132;" vertex="1" parent="pQo0fo5ogEPFuPqu64le-67">
          <mxGeometry x="15" y="30" width="10" height="10" as="geometry" />
        </mxCell>
        <mxCell id="pQo0fo5ogEPFuPqu64le-73" value="" style="endArrow=none;html=1;rounded=0;exitX=1;exitY=1;exitDx=0;exitDy=0;entryX=0;entryY=0;entryDx=0;entryDy=0;strokeWidth=0.5;" edge="1" parent="pQo0fo5ogEPFuPqu64le-67" source="pQo0fo5ogEPFuPqu64le-68" target="pQo0fo5ogEPFuPqu64le-70">
          <mxGeometry width="50" height="50" relative="1" as="geometry">
            <mxPoint x="135" y="20" as="sourcePoint" />
            <mxPoint x="185" y="-30" as="targetPoint" />
          </mxGeometry>
        </mxCell>
        <mxCell id="pQo0fo5ogEPFuPqu64le-74" value="" style="endArrow=none;html=1;rounded=0;exitX=0;exitY=0.5;exitDx=0;exitDy=0;entryX=1;entryY=0.5;entryDx=0;entryDy=0;strokeWidth=0.5;" edge="1" parent="pQo0fo5ogEPFuPqu64le-67" source="pQo0fo5ogEPFuPqu64le-70" target="pQo0fo5ogEPFuPqu64le-69">
          <mxGeometry width="50" height="50" relative="1" as="geometry">
            <mxPoint x="34" y="19" as="sourcePoint" />
            <mxPoint x="41" y="26" as="targetPoint" />
          </mxGeometry>
        </mxCell>
        <mxCell id="pQo0fo5ogEPFuPqu64le-75" value="" style="endArrow=none;html=1;rounded=0;exitX=0;exitY=1;exitDx=0;exitDy=0;entryX=1;entryY=0;entryDx=0;entryDy=0;strokeWidth=0.5;" edge="1" parent="pQo0fo5ogEPFuPqu64le-67" source="pQo0fo5ogEPFuPqu64le-70" target="pQo0fo5ogEPFuPqu64le-72">
          <mxGeometry width="50" height="50" relative="1" as="geometry">
            <mxPoint x="44" y="29" as="sourcePoint" />
            <mxPoint x="51" y="36" as="targetPoint" />
          </mxGeometry>
        </mxCell>
        <mxCell id="pQo0fo5ogEPFuPqu64le-76" value="" style="endArrow=none;html=1;rounded=0;exitX=1;exitY=1;exitDx=0;exitDy=0;entryX=0;entryY=0;entryDx=0;entryDy=0;strokeWidth=0.5;" edge="1" parent="pQo0fo5ogEPFuPqu64le-67" source="pQo0fo5ogEPFuPqu64le-69" target="pQo0fo5ogEPFuPqu64le-72">
          <mxGeometry width="50" height="50" relative="1" as="geometry">
            <mxPoint x="8" y="25" as="sourcePoint" />
            <mxPoint x="15" y="32" as="targetPoint" />
          </mxGeometry>
        </mxCell>
        <mxCell id="pQo0fo5ogEPFuPqu64le-77" value="" style="endArrow=none;html=1;rounded=0;exitX=0.5;exitY=1;exitDx=0;exitDy=0;entryX=0.5;entryY=0;entryDx=0;entryDy=0;strokeWidth=0.5;startArrow=classic;startFill=1;jumpSize=2;endSize=3;startSize=1;" edge="1" parent="pQo0fo5ogEPFuPqu64le-67" source="pQo0fo5ogEPFuPqu64le-69" target="pQo0fo5ogEPFuPqu64le-71">
          <mxGeometry width="50" height="50" relative="1" as="geometry">
            <mxPoint x="64" y="49" as="sourcePoint" />
            <mxPoint x="71" y="56" as="targetPoint" />
          </mxGeometry>
        </mxCell>
        <mxCell id="pQo0fo5ogEPFuPqu64le-78" value="" style="endArrow=classic;html=1;rounded=0;exitX=1;exitY=0;exitDx=0;exitDy=0;entryX=0;entryY=1;entryDx=0;entryDy=0;strokeWidth=0.5;endFill=1;endSize=1;" edge="1" parent="pQo0fo5ogEPFuPqu64le-67" source="pQo0fo5ogEPFuPqu64le-71" target="pQo0fo5ogEPFuPqu64le-72">
          <mxGeometry width="50" height="50" relative="1" as="geometry">
            <mxPoint x="74" y="59" as="sourcePoint" />
            <mxPoint x="81" y="66" as="targetPoint" />
          </mxGeometry>
        </mxCell>
        <mxCell id="pQo0fo5ogEPFuPqu64le-79" value="&lt;font style=&quot;font-size: 5px;&quot;&gt;E&lt;/font&gt;" style="text;html=1;align=center;verticalAlign=middle;whiteSpace=wrap;rounded=0;" vertex="1" parent="pQo0fo5ogEPFuPqu64le-67">
          <mxGeometry y="48" width="10" height="10" as="geometry" />
        </mxCell>
        <mxCell id="pQo0fo5ogEPFuPqu64le-80" value="" style="group" vertex="1" connectable="0" parent="1">
          <mxGeometry x="508" y="610" width="40" height="60" as="geometry" />
        </mxCell>
        <mxCell id="pQo0fo5ogEPFuPqu64le-81" value="" style="ellipse;whiteSpace=wrap;html=1;strokeWidth=0.5;fillColor=#fad9d5;strokeColor=#ae4132;" vertex="1" parent="pQo0fo5ogEPFuPqu64le-80">
          <mxGeometry x="15" width="10" height="10" as="geometry" />
        </mxCell>
        <mxCell id="pQo0fo5ogEPFuPqu64le-82" value="" style="ellipse;whiteSpace=wrap;html=1;strokeWidth=0.5;fillColor=#fad9d5;strokeColor=#ae4132;" vertex="1" parent="pQo0fo5ogEPFuPqu64le-80">
          <mxGeometry y="15" width="10" height="10" as="geometry" />
        </mxCell>
        <mxCell id="pQo0fo5ogEPFuPqu64le-83" value="" style="ellipse;whiteSpace=wrap;html=1;strokeWidth=0.5;fillColor=#fad9d5;strokeColor=#ae4132;" vertex="1" parent="pQo0fo5ogEPFuPqu64le-80">
          <mxGeometry x="30" y="15" width="10" height="10" as="geometry" />
        </mxCell>
        <mxCell id="pQo0fo5ogEPFuPqu64le-84" value="" style="ellipse;whiteSpace=wrap;html=1;strokeWidth=0.5;" vertex="1" parent="pQo0fo5ogEPFuPqu64le-80">
          <mxGeometry y="50" width="10" height="10" as="geometry" />
        </mxCell>
        <mxCell id="pQo0fo5ogEPFuPqu64le-85" value="" style="ellipse;whiteSpace=wrap;html=1;strokeWidth=0.5;fillColor=#fad9d5;strokeColor=#ae4132;" vertex="1" parent="pQo0fo5ogEPFuPqu64le-80">
          <mxGeometry x="15" y="30" width="10" height="10" as="geometry" />
        </mxCell>
        <mxCell id="pQo0fo5ogEPFuPqu64le-86" value="" style="endArrow=none;html=1;rounded=0;exitX=1;exitY=1;exitDx=0;exitDy=0;entryX=0;entryY=0;entryDx=0;entryDy=0;strokeWidth=0.5;" edge="1" parent="pQo0fo5ogEPFuPqu64le-80" source="pQo0fo5ogEPFuPqu64le-81" target="pQo0fo5ogEPFuPqu64le-83">
          <mxGeometry width="50" height="50" relative="1" as="geometry">
            <mxPoint x="135" y="20" as="sourcePoint" />
            <mxPoint x="185" y="-30" as="targetPoint" />
          </mxGeometry>
        </mxCell>
        <mxCell id="pQo0fo5ogEPFuPqu64le-87" value="" style="endArrow=none;html=1;rounded=0;exitX=0;exitY=0.5;exitDx=0;exitDy=0;entryX=1;entryY=0.5;entryDx=0;entryDy=0;strokeWidth=0.5;" edge="1" parent="pQo0fo5ogEPFuPqu64le-80" source="pQo0fo5ogEPFuPqu64le-83" target="pQo0fo5ogEPFuPqu64le-82">
          <mxGeometry width="50" height="50" relative="1" as="geometry">
            <mxPoint x="34" y="19" as="sourcePoint" />
            <mxPoint x="41" y="26" as="targetPoint" />
          </mxGeometry>
        </mxCell>
        <mxCell id="pQo0fo5ogEPFuPqu64le-88" value="" style="endArrow=none;html=1;rounded=0;exitX=0;exitY=1;exitDx=0;exitDy=0;entryX=1;entryY=0;entryDx=0;entryDy=0;strokeWidth=0.5;" edge="1" parent="pQo0fo5ogEPFuPqu64le-80" source="pQo0fo5ogEPFuPqu64le-83" target="pQo0fo5ogEPFuPqu64le-85">
          <mxGeometry width="50" height="50" relative="1" as="geometry">
            <mxPoint x="44" y="29" as="sourcePoint" />
            <mxPoint x="51" y="36" as="targetPoint" />
          </mxGeometry>
        </mxCell>
        <mxCell id="pQo0fo5ogEPFuPqu64le-89" value="" style="endArrow=none;html=1;rounded=0;exitX=1;exitY=1;exitDx=0;exitDy=0;entryX=0;entryY=0;entryDx=0;entryDy=0;strokeWidth=0.5;" edge="1" parent="pQo0fo5ogEPFuPqu64le-80" source="pQo0fo5ogEPFuPqu64le-82" target="pQo0fo5ogEPFuPqu64le-85">
          <mxGeometry width="50" height="50" relative="1" as="geometry">
            <mxPoint x="8" y="25" as="sourcePoint" />
            <mxPoint x="15" y="32" as="targetPoint" />
          </mxGeometry>
        </mxCell>
        <mxCell id="pQo0fo5ogEPFuPqu64le-90" value="" style="endArrow=none;dashed=1;html=1;rounded=0;exitX=0.5;exitY=1;exitDx=0;exitDy=0;entryX=0.5;entryY=0;entryDx=0;entryDy=0;strokeWidth=0.5;startArrow=classic;startFill=1;jumpSize=2;endSize=3;startSize=1;" edge="1" parent="pQo0fo5ogEPFuPqu64le-80" source="pQo0fo5ogEPFuPqu64le-82" target="pQo0fo5ogEPFuPqu64le-84">
          <mxGeometry width="50" height="50" relative="1" as="geometry">
            <mxPoint x="64" y="49" as="sourcePoint" />
            <mxPoint x="71" y="56" as="targetPoint" />
          </mxGeometry>
        </mxCell>
        <mxCell id="pQo0fo5ogEPFuPqu64le-91" value="" style="endArrow=classic;dashed=1;html=1;rounded=0;exitX=1;exitY=0;exitDx=0;exitDy=0;entryX=0;entryY=1;entryDx=0;entryDy=0;strokeWidth=0.5;endFill=1;endSize=1;" edge="1" parent="pQo0fo5ogEPFuPqu64le-80" source="pQo0fo5ogEPFuPqu64le-84" target="pQo0fo5ogEPFuPqu64le-85">
          <mxGeometry width="50" height="50" relative="1" as="geometry">
            <mxPoint x="74" y="59" as="sourcePoint" />
            <mxPoint x="81" y="66" as="targetPoint" />
          </mxGeometry>
        </mxCell>
        <mxCell id="pQo0fo5ogEPFuPqu64le-92" value="&lt;font style=&quot;font-size: 5px;&quot;&gt;E&lt;/font&gt;" style="text;html=1;align=center;verticalAlign=middle;whiteSpace=wrap;rounded=0;" vertex="1" parent="pQo0fo5ogEPFuPqu64le-80">
          <mxGeometry y="48" width="10" height="10" as="geometry" />
        </mxCell>
        <mxCell id="pQo0fo5ogEPFuPqu64le-97" value="Low Resilience" style="text;html=1;align=center;verticalAlign=middle;whiteSpace=wrap;rounded=0;" vertex="1" parent="1">
          <mxGeometry x="160" y="625" width="60" height="30" as="geometry" />
        </mxCell>
        <mxCell id="pQo0fo5ogEPFuPqu64le-99" value="" style="group" vertex="1" connectable="0" parent="1">
          <mxGeometry x="268" y="517" width="40" height="60" as="geometry" />
        </mxCell>
        <mxCell id="pQo0fo5ogEPFuPqu64le-100" value="" style="ellipse;whiteSpace=wrap;html=1;strokeWidth=0.5;" vertex="1" parent="pQo0fo5ogEPFuPqu64le-99">
          <mxGeometry x="15" width="10" height="10" as="geometry" />
        </mxCell>
        <mxCell id="pQo0fo5ogEPFuPqu64le-101" value="" style="ellipse;whiteSpace=wrap;html=1;strokeWidth=0.5;" vertex="1" parent="pQo0fo5ogEPFuPqu64le-99">
          <mxGeometry y="15" width="10" height="10" as="geometry" />
        </mxCell>
        <mxCell id="pQo0fo5ogEPFuPqu64le-102" value="" style="ellipse;whiteSpace=wrap;html=1;strokeWidth=0.5;" vertex="1" parent="pQo0fo5ogEPFuPqu64le-99">
          <mxGeometry x="30" y="15" width="10" height="10" as="geometry" />
        </mxCell>
        <mxCell id="pQo0fo5ogEPFuPqu64le-103" value="" style="ellipse;whiteSpace=wrap;html=1;strokeWidth=0.5;" vertex="1" parent="pQo0fo5ogEPFuPqu64le-99">
          <mxGeometry y="50" width="10" height="10" as="geometry" />
        </mxCell>
        <mxCell id="pQo0fo5ogEPFuPqu64le-104" value="" style="ellipse;whiteSpace=wrap;html=1;strokeWidth=0.5;" vertex="1" parent="pQo0fo5ogEPFuPqu64le-99">
          <mxGeometry x="15" y="30" width="10" height="10" as="geometry" />
        </mxCell>
        <mxCell id="pQo0fo5ogEPFuPqu64le-105" value="" style="endArrow=none;dashed=1;html=1;rounded=0;exitX=1;exitY=1;exitDx=0;exitDy=0;entryX=0;entryY=0;entryDx=0;entryDy=0;strokeWidth=0.5;" edge="1" parent="pQo0fo5ogEPFuPqu64le-99" source="pQo0fo5ogEPFuPqu64le-100" target="pQo0fo5ogEPFuPqu64le-102">
          <mxGeometry width="50" height="50" relative="1" as="geometry">
            <mxPoint x="135" y="20" as="sourcePoint" />
            <mxPoint x="185" y="-30" as="targetPoint" />
          </mxGeometry>
        </mxCell>
        <mxCell id="pQo0fo5ogEPFuPqu64le-107" value="" style="endArrow=none;dashed=1;html=1;rounded=0;exitX=0;exitY=1;exitDx=0;exitDy=0;entryX=1;entryY=0;entryDx=0;entryDy=0;strokeWidth=0.5;" edge="1" parent="pQo0fo5ogEPFuPqu64le-99" source="pQo0fo5ogEPFuPqu64le-102" target="pQo0fo5ogEPFuPqu64le-104">
          <mxGeometry width="50" height="50" relative="1" as="geometry">
            <mxPoint x="44" y="29" as="sourcePoint" />
            <mxPoint x="51" y="36" as="targetPoint" />
          </mxGeometry>
        </mxCell>
        <mxCell id="pQo0fo5ogEPFuPqu64le-108" value="" style="endArrow=none;dashed=1;html=1;rounded=0;exitX=0.882;exitY=0.984;exitDx=0;exitDy=0;entryX=0.149;entryY=0.269;entryDx=0;entryDy=0;strokeWidth=0.5;entryPerimeter=0;exitPerimeter=0;" edge="1" parent="pQo0fo5ogEPFuPqu64le-99" source="pQo0fo5ogEPFuPqu64le-101" target="pQo0fo5ogEPFuPqu64le-104">
          <mxGeometry width="50" height="50" relative="1" as="geometry">
            <mxPoint x="8" y="25" as="sourcePoint" />
            <mxPoint x="15" y="32" as="targetPoint" />
          </mxGeometry>
        </mxCell>
        <mxCell id="pQo0fo5ogEPFuPqu64le-109" value="" style="endArrow=none;dashed=1;html=1;rounded=0;exitX=0.5;exitY=1;exitDx=0;exitDy=0;entryX=0.5;entryY=0;entryDx=0;entryDy=0;strokeWidth=0.5;startArrow=classic;startFill=1;jumpSize=2;endSize=3;startSize=1;" edge="1" parent="pQo0fo5ogEPFuPqu64le-99" source="pQo0fo5ogEPFuPqu64le-101" target="pQo0fo5ogEPFuPqu64le-103">
          <mxGeometry width="50" height="50" relative="1" as="geometry">
            <mxPoint x="64" y="49" as="sourcePoint" />
            <mxPoint x="71" y="56" as="targetPoint" />
          </mxGeometry>
        </mxCell>
        <mxCell id="pQo0fo5ogEPFuPqu64le-110" value="" style="endArrow=classic;dashed=1;html=1;rounded=0;exitX=1;exitY=0;exitDx=0;exitDy=0;entryX=0;entryY=1;entryDx=0;entryDy=0;strokeWidth=0.5;endFill=1;endSize=1;" edge="1" parent="pQo0fo5ogEPFuPqu64le-99" source="pQo0fo5ogEPFuPqu64le-103" target="pQo0fo5ogEPFuPqu64le-104">
          <mxGeometry width="50" height="50" relative="1" as="geometry">
            <mxPoint x="74" y="59" as="sourcePoint" />
            <mxPoint x="81" y="66" as="targetPoint" />
          </mxGeometry>
        </mxCell>
        <mxCell id="pQo0fo5ogEPFuPqu64le-111" value="&lt;font style=&quot;font-size: 5px;&quot;&gt;E&lt;/font&gt;" style="text;html=1;align=center;verticalAlign=middle;whiteSpace=wrap;rounded=0;" vertex="1" parent="pQo0fo5ogEPFuPqu64le-99">
          <mxGeometry y="48" width="10" height="10" as="geometry" />
        </mxCell>
        <mxCell id="pQo0fo5ogEPFuPqu64le-112" value="" style="group" vertex="1" connectable="0" parent="1">
          <mxGeometry x="448" y="517" width="40" height="60" as="geometry" />
        </mxCell>
        <mxCell id="pQo0fo5ogEPFuPqu64le-113" value="" style="ellipse;whiteSpace=wrap;html=1;strokeWidth=0.5;" vertex="1" parent="pQo0fo5ogEPFuPqu64le-112">
          <mxGeometry x="15" width="10" height="10" as="geometry" />
        </mxCell>
        <mxCell id="pQo0fo5ogEPFuPqu64le-114" value="" style="ellipse;whiteSpace=wrap;html=1;strokeWidth=0.5;fillColor=#fad9d5;strokeColor=#ae4132;" vertex="1" parent="pQo0fo5ogEPFuPqu64le-112">
          <mxGeometry y="15" width="10" height="10" as="geometry" />
        </mxCell>
        <mxCell id="pQo0fo5ogEPFuPqu64le-115" value="" style="ellipse;whiteSpace=wrap;html=1;strokeWidth=0.5;" vertex="1" parent="pQo0fo5ogEPFuPqu64le-112">
          <mxGeometry x="30" y="15" width="10" height="10" as="geometry" />
        </mxCell>
        <mxCell id="pQo0fo5ogEPFuPqu64le-116" value="" style="ellipse;whiteSpace=wrap;html=1;strokeWidth=0.5;" vertex="1" parent="pQo0fo5ogEPFuPqu64le-112">
          <mxGeometry y="50" width="10" height="10" as="geometry" />
        </mxCell>
        <mxCell id="pQo0fo5ogEPFuPqu64le-117" value="" style="ellipse;whiteSpace=wrap;html=1;strokeWidth=0.5;fillColor=#fad9d5;strokeColor=#ae4132;" vertex="1" parent="pQo0fo5ogEPFuPqu64le-112">
          <mxGeometry x="15" y="30" width="10" height="10" as="geometry" />
        </mxCell>
        <mxCell id="pQo0fo5ogEPFuPqu64le-118" value="" style="endArrow=none;html=1;rounded=0;exitX=1;exitY=1;exitDx=0;exitDy=0;entryX=0;entryY=0;entryDx=0;entryDy=0;strokeWidth=0.5;dashed=1;" edge="1" parent="pQo0fo5ogEPFuPqu64le-112" source="pQo0fo5ogEPFuPqu64le-113" target="pQo0fo5ogEPFuPqu64le-115">
          <mxGeometry width="50" height="50" relative="1" as="geometry">
            <mxPoint x="135" y="20" as="sourcePoint" />
            <mxPoint x="185" y="-30" as="targetPoint" />
          </mxGeometry>
        </mxCell>
        <mxCell id="pQo0fo5ogEPFuPqu64le-120" value="" style="endArrow=none;html=1;rounded=0;exitX=0;exitY=1;exitDx=0;exitDy=0;entryX=1;entryY=0;entryDx=0;entryDy=0;strokeWidth=0.5;dashed=1;" edge="1" parent="pQo0fo5ogEPFuPqu64le-112" source="pQo0fo5ogEPFuPqu64le-115" target="pQo0fo5ogEPFuPqu64le-117">
          <mxGeometry width="50" height="50" relative="1" as="geometry">
            <mxPoint x="44" y="29" as="sourcePoint" />
            <mxPoint x="51" y="36" as="targetPoint" />
          </mxGeometry>
        </mxCell>
        <mxCell id="pQo0fo5ogEPFuPqu64le-121" value="" style="endArrow=none;html=1;rounded=0;exitX=1;exitY=1;exitDx=0;exitDy=0;entryX=0;entryY=0;entryDx=0;entryDy=0;strokeWidth=0.5;" edge="1" parent="pQo0fo5ogEPFuPqu64le-112" source="pQo0fo5ogEPFuPqu64le-114" target="pQo0fo5ogEPFuPqu64le-117">
          <mxGeometry width="50" height="50" relative="1" as="geometry">
            <mxPoint x="8" y="25" as="sourcePoint" />
            <mxPoint x="15" y="32" as="targetPoint" />
          </mxGeometry>
        </mxCell>
        <mxCell id="pQo0fo5ogEPFuPqu64le-122" value="" style="endArrow=none;dashed=1;html=1;rounded=0;exitX=0.5;exitY=1;exitDx=0;exitDy=0;entryX=0.5;entryY=0;entryDx=0;entryDy=0;strokeWidth=0.5;startArrow=classic;startFill=1;jumpSize=2;endSize=3;startSize=1;" edge="1" parent="pQo0fo5ogEPFuPqu64le-112" source="pQo0fo5ogEPFuPqu64le-114" target="pQo0fo5ogEPFuPqu64le-116">
          <mxGeometry width="50" height="50" relative="1" as="geometry">
            <mxPoint x="64" y="49" as="sourcePoint" />
            <mxPoint x="71" y="56" as="targetPoint" />
          </mxGeometry>
        </mxCell>
        <mxCell id="pQo0fo5ogEPFuPqu64le-123" value="" style="endArrow=classic;dashed=1;html=1;rounded=0;exitX=1;exitY=0;exitDx=0;exitDy=0;entryX=0;entryY=1;entryDx=0;entryDy=0;strokeWidth=0.5;endFill=1;endSize=1;" edge="1" parent="pQo0fo5ogEPFuPqu64le-112" source="pQo0fo5ogEPFuPqu64le-116" target="pQo0fo5ogEPFuPqu64le-117">
          <mxGeometry width="50" height="50" relative="1" as="geometry">
            <mxPoint x="74" y="59" as="sourcePoint" />
            <mxPoint x="81" y="66" as="targetPoint" />
          </mxGeometry>
        </mxCell>
        <mxCell id="pQo0fo5ogEPFuPqu64le-124" value="&lt;font style=&quot;font-size: 5px;&quot;&gt;E&lt;/font&gt;" style="text;html=1;align=center;verticalAlign=middle;whiteSpace=wrap;rounded=0;" vertex="1" parent="pQo0fo5ogEPFuPqu64le-112">
          <mxGeometry y="48" width="10" height="10" as="geometry" />
        </mxCell>
        <mxCell id="pQo0fo5ogEPFuPqu64le-125" value="" style="group" vertex="1" connectable="0" parent="1">
          <mxGeometry x="628" y="517" width="40" height="60" as="geometry" />
        </mxCell>
        <mxCell id="pQo0fo5ogEPFuPqu64le-126" value="" style="ellipse;whiteSpace=wrap;html=1;strokeWidth=0.5;" vertex="1" parent="pQo0fo5ogEPFuPqu64le-125">
          <mxGeometry x="15" width="10" height="10" as="geometry" />
        </mxCell>
        <mxCell id="pQo0fo5ogEPFuPqu64le-127" value="" style="ellipse;whiteSpace=wrap;html=1;strokeWidth=0.5;" vertex="1" parent="pQo0fo5ogEPFuPqu64le-125">
          <mxGeometry y="15" width="10" height="10" as="geometry" />
        </mxCell>
        <mxCell id="pQo0fo5ogEPFuPqu64le-128" value="" style="ellipse;whiteSpace=wrap;html=1;strokeWidth=0.5;" vertex="1" parent="pQo0fo5ogEPFuPqu64le-125">
          <mxGeometry x="30" y="15" width="10" height="10" as="geometry" />
        </mxCell>
        <mxCell id="pQo0fo5ogEPFuPqu64le-129" value="" style="ellipse;whiteSpace=wrap;html=1;strokeWidth=0.5;" vertex="1" parent="pQo0fo5ogEPFuPqu64le-125">
          <mxGeometry y="50" width="10" height="10" as="geometry" />
        </mxCell>
        <mxCell id="pQo0fo5ogEPFuPqu64le-130" value="" style="ellipse;whiteSpace=wrap;html=1;strokeWidth=0.5;" vertex="1" parent="pQo0fo5ogEPFuPqu64le-125">
          <mxGeometry x="15" y="30" width="10" height="10" as="geometry" />
        </mxCell>
        <mxCell id="pQo0fo5ogEPFuPqu64le-131" value="" style="endArrow=none;dashed=1;html=1;rounded=0;exitX=1;exitY=1;exitDx=0;exitDy=0;entryX=0;entryY=0;entryDx=0;entryDy=0;strokeWidth=0.5;" edge="1" parent="pQo0fo5ogEPFuPqu64le-125" source="pQo0fo5ogEPFuPqu64le-126" target="pQo0fo5ogEPFuPqu64le-128">
          <mxGeometry width="50" height="50" relative="1" as="geometry">
            <mxPoint x="135" y="20" as="sourcePoint" />
            <mxPoint x="185" y="-30" as="targetPoint" />
          </mxGeometry>
        </mxCell>
        <mxCell id="pQo0fo5ogEPFuPqu64le-133" value="" style="endArrow=none;dashed=1;html=1;rounded=0;exitX=0;exitY=1;exitDx=0;exitDy=0;entryX=1;entryY=0;entryDx=0;entryDy=0;strokeWidth=0.5;" edge="1" parent="pQo0fo5ogEPFuPqu64le-125" source="pQo0fo5ogEPFuPqu64le-128" target="pQo0fo5ogEPFuPqu64le-130">
          <mxGeometry width="50" height="50" relative="1" as="geometry">
            <mxPoint x="44" y="29" as="sourcePoint" />
            <mxPoint x="51" y="36" as="targetPoint" />
          </mxGeometry>
        </mxCell>
        <mxCell id="pQo0fo5ogEPFuPqu64le-134" value="" style="endArrow=none;dashed=1;html=1;rounded=0;exitX=0.882;exitY=0.984;exitDx=0;exitDy=0;entryX=0.149;entryY=0.269;entryDx=0;entryDy=0;strokeWidth=0.5;entryPerimeter=0;exitPerimeter=0;" edge="1" parent="pQo0fo5ogEPFuPqu64le-125" source="pQo0fo5ogEPFuPqu64le-127" target="pQo0fo5ogEPFuPqu64le-130">
          <mxGeometry width="50" height="50" relative="1" as="geometry">
            <mxPoint x="8" y="25" as="sourcePoint" />
            <mxPoint x="15" y="32" as="targetPoint" />
          </mxGeometry>
        </mxCell>
        <mxCell id="pQo0fo5ogEPFuPqu64le-135" value="" style="endArrow=none;dashed=1;html=1;rounded=0;exitX=0.5;exitY=1;exitDx=0;exitDy=0;entryX=0.5;entryY=0;entryDx=0;entryDy=0;strokeWidth=0.5;startArrow=classic;startFill=1;jumpSize=2;endSize=3;startSize=1;" edge="1" parent="pQo0fo5ogEPFuPqu64le-125" source="pQo0fo5ogEPFuPqu64le-127" target="pQo0fo5ogEPFuPqu64le-129">
          <mxGeometry width="50" height="50" relative="1" as="geometry">
            <mxPoint x="64" y="49" as="sourcePoint" />
            <mxPoint x="71" y="56" as="targetPoint" />
          </mxGeometry>
        </mxCell>
        <mxCell id="pQo0fo5ogEPFuPqu64le-136" value="" style="endArrow=classic;dashed=1;html=1;rounded=0;exitX=1;exitY=0;exitDx=0;exitDy=0;entryX=0;entryY=1;entryDx=0;entryDy=0;strokeWidth=0.5;endFill=1;endSize=1;" edge="1" parent="pQo0fo5ogEPFuPqu64le-125" source="pQo0fo5ogEPFuPqu64le-129" target="pQo0fo5ogEPFuPqu64le-130">
          <mxGeometry width="50" height="50" relative="1" as="geometry">
            <mxPoint x="74" y="59" as="sourcePoint" />
            <mxPoint x="81" y="66" as="targetPoint" />
          </mxGeometry>
        </mxCell>
        <mxCell id="pQo0fo5ogEPFuPqu64le-137" value="&lt;font style=&quot;font-size: 5px;&quot;&gt;E&lt;/font&gt;" style="text;html=1;align=center;verticalAlign=middle;whiteSpace=wrap;rounded=0;" vertex="1" parent="pQo0fo5ogEPFuPqu64le-125">
          <mxGeometry y="48" width="10" height="10" as="geometry" />
        </mxCell>
        <mxCell id="pQo0fo5ogEPFuPqu64le-151" value="" style="group" vertex="1" connectable="0" parent="1">
          <mxGeometry x="328" y="517" width="40" height="60" as="geometry" />
        </mxCell>
        <mxCell id="pQo0fo5ogEPFuPqu64le-152" value="" style="ellipse;whiteSpace=wrap;html=1;strokeWidth=0.5;" vertex="1" parent="pQo0fo5ogEPFuPqu64le-151">
          <mxGeometry x="15" width="10" height="10" as="geometry" />
        </mxCell>
        <mxCell id="pQo0fo5ogEPFuPqu64le-153" value="" style="ellipse;whiteSpace=wrap;html=1;strokeWidth=0.5;fillColor=#fad9d5;strokeColor=#ae4132;" vertex="1" parent="pQo0fo5ogEPFuPqu64le-151">
          <mxGeometry y="15" width="10" height="10" as="geometry" />
        </mxCell>
        <mxCell id="pQo0fo5ogEPFuPqu64le-154" value="" style="ellipse;whiteSpace=wrap;html=1;strokeWidth=0.5;" vertex="1" parent="pQo0fo5ogEPFuPqu64le-151">
          <mxGeometry x="30" y="15" width="10" height="10" as="geometry" />
        </mxCell>
        <mxCell id="pQo0fo5ogEPFuPqu64le-155" value="" style="ellipse;whiteSpace=wrap;html=1;strokeWidth=0.5;fillColor=#878787;strokeColor=#23445d;" vertex="1" parent="pQo0fo5ogEPFuPqu64le-151">
          <mxGeometry y="50" width="10" height="10" as="geometry" />
        </mxCell>
        <mxCell id="pQo0fo5ogEPFuPqu64le-156" value="" style="ellipse;whiteSpace=wrap;html=1;strokeWidth=0.5;fillColor=#fad9d5;strokeColor=#ae4132;" vertex="1" parent="pQo0fo5ogEPFuPqu64le-151">
          <mxGeometry x="15" y="30" width="10" height="10" as="geometry" />
        </mxCell>
        <mxCell id="pQo0fo5ogEPFuPqu64le-157" value="" style="endArrow=none;dashed=1;html=1;rounded=0;exitX=1;exitY=1;exitDx=0;exitDy=0;entryX=0;entryY=0;entryDx=0;entryDy=0;strokeWidth=0.5;" edge="1" parent="pQo0fo5ogEPFuPqu64le-151" source="pQo0fo5ogEPFuPqu64le-152" target="pQo0fo5ogEPFuPqu64le-154">
          <mxGeometry width="50" height="50" relative="1" as="geometry">
            <mxPoint x="135" y="20" as="sourcePoint" />
            <mxPoint x="185" y="-30" as="targetPoint" />
          </mxGeometry>
        </mxCell>
        <mxCell id="pQo0fo5ogEPFuPqu64le-159" value="" style="endArrow=none;dashed=1;html=1;rounded=0;exitX=0;exitY=1;exitDx=0;exitDy=0;entryX=1;entryY=0;entryDx=0;entryDy=0;strokeWidth=0.5;" edge="1" parent="pQo0fo5ogEPFuPqu64le-151" source="pQo0fo5ogEPFuPqu64le-154" target="pQo0fo5ogEPFuPqu64le-156">
          <mxGeometry width="50" height="50" relative="1" as="geometry">
            <mxPoint x="44" y="29" as="sourcePoint" />
            <mxPoint x="51" y="36" as="targetPoint" />
          </mxGeometry>
        </mxCell>
        <mxCell id="pQo0fo5ogEPFuPqu64le-160" value="" style="endArrow=none;html=1;rounded=0;exitX=1;exitY=1;exitDx=0;exitDy=0;entryX=0;entryY=0;entryDx=0;entryDy=0;strokeWidth=0.5;" edge="1" parent="pQo0fo5ogEPFuPqu64le-151" source="pQo0fo5ogEPFuPqu64le-153" target="pQo0fo5ogEPFuPqu64le-156">
          <mxGeometry width="50" height="50" relative="1" as="geometry">
            <mxPoint x="8" y="25" as="sourcePoint" />
            <mxPoint x="15" y="32" as="targetPoint" />
          </mxGeometry>
        </mxCell>
        <mxCell id="pQo0fo5ogEPFuPqu64le-161" value="" style="endArrow=none;html=1;rounded=0;exitX=0.5;exitY=1;exitDx=0;exitDy=0;entryX=0.5;entryY=0;entryDx=0;entryDy=0;strokeWidth=0.5;startArrow=classic;startFill=1;jumpSize=2;endSize=3;startSize=1;" edge="1" parent="pQo0fo5ogEPFuPqu64le-151" source="pQo0fo5ogEPFuPqu64le-153" target="pQo0fo5ogEPFuPqu64le-155">
          <mxGeometry width="50" height="50" relative="1" as="geometry">
            <mxPoint x="64" y="49" as="sourcePoint" />
            <mxPoint x="71" y="56" as="targetPoint" />
          </mxGeometry>
        </mxCell>
        <mxCell id="pQo0fo5ogEPFuPqu64le-162" value="" style="endArrow=classic;html=1;rounded=0;exitX=1;exitY=0;exitDx=0;exitDy=0;entryX=0;entryY=1;entryDx=0;entryDy=0;strokeWidth=0.5;endFill=1;endSize=1;" edge="1" parent="pQo0fo5ogEPFuPqu64le-151" source="pQo0fo5ogEPFuPqu64le-155" target="pQo0fo5ogEPFuPqu64le-156">
          <mxGeometry width="50" height="50" relative="1" as="geometry">
            <mxPoint x="74" y="59" as="sourcePoint" />
            <mxPoint x="81" y="66" as="targetPoint" />
          </mxGeometry>
        </mxCell>
        <mxCell id="pQo0fo5ogEPFuPqu64le-163" value="&lt;font style=&quot;font-size: 5px;&quot;&gt;E&lt;/font&gt;" style="text;html=1;align=center;verticalAlign=middle;whiteSpace=wrap;rounded=0;" vertex="1" parent="pQo0fo5ogEPFuPqu64le-151">
          <mxGeometry y="48" width="10" height="10" as="geometry" />
        </mxCell>
        <mxCell id="pQo0fo5ogEPFuPqu64le-164" value="" style="group" vertex="1" connectable="0" parent="1">
          <mxGeometry x="388" y="517" width="40" height="60" as="geometry" />
        </mxCell>
        <mxCell id="pQo0fo5ogEPFuPqu64le-165" value="" style="ellipse;whiteSpace=wrap;html=1;strokeWidth=0.5;" vertex="1" parent="pQo0fo5ogEPFuPqu64le-164">
          <mxGeometry x="15" width="10" height="10" as="geometry" />
        </mxCell>
        <mxCell id="pQo0fo5ogEPFuPqu64le-166" value="" style="ellipse;whiteSpace=wrap;html=1;strokeWidth=0.5;fillColor=#fad9d5;strokeColor=#ae4132;" vertex="1" parent="pQo0fo5ogEPFuPqu64le-164">
          <mxGeometry y="15" width="10" height="10" as="geometry" />
        </mxCell>
        <mxCell id="pQo0fo5ogEPFuPqu64le-167" value="" style="ellipse;whiteSpace=wrap;html=1;strokeWidth=0.5;fillColor=#f8cecc;strokeColor=#b85450;" vertex="1" parent="pQo0fo5ogEPFuPqu64le-164">
          <mxGeometry x="30" y="15" width="10" height="10" as="geometry" />
        </mxCell>
        <mxCell id="pQo0fo5ogEPFuPqu64le-168" value="" style="ellipse;whiteSpace=wrap;html=1;strokeWidth=0.5;fillColor=#878787;strokeColor=#23445d;" vertex="1" parent="pQo0fo5ogEPFuPqu64le-164">
          <mxGeometry y="50" width="10" height="10" as="geometry" />
        </mxCell>
        <mxCell id="pQo0fo5ogEPFuPqu64le-169" value="" style="ellipse;whiteSpace=wrap;html=1;strokeWidth=0.5;fillColor=#fad9d5;strokeColor=#ae4132;" vertex="1" parent="pQo0fo5ogEPFuPqu64le-164">
          <mxGeometry x="15" y="30" width="10" height="10" as="geometry" />
        </mxCell>
        <mxCell id="pQo0fo5ogEPFuPqu64le-170" value="" style="endArrow=none;html=1;rounded=0;exitX=1;exitY=1;exitDx=0;exitDy=0;entryX=0;entryY=0;entryDx=0;entryDy=0;strokeWidth=0.5;dashed=1;" edge="1" parent="pQo0fo5ogEPFuPqu64le-164" source="pQo0fo5ogEPFuPqu64le-165" target="pQo0fo5ogEPFuPqu64le-167">
          <mxGeometry width="50" height="50" relative="1" as="geometry">
            <mxPoint x="135" y="20" as="sourcePoint" />
            <mxPoint x="185" y="-30" as="targetPoint" />
          </mxGeometry>
        </mxCell>
        <mxCell id="pQo0fo5ogEPFuPqu64le-172" value="" style="endArrow=none;html=1;rounded=0;exitX=0;exitY=1;exitDx=0;exitDy=0;entryX=1;entryY=0;entryDx=0;entryDy=0;strokeWidth=0.5;" edge="1" parent="pQo0fo5ogEPFuPqu64le-164" source="pQo0fo5ogEPFuPqu64le-167" target="pQo0fo5ogEPFuPqu64le-169">
          <mxGeometry width="50" height="50" relative="1" as="geometry">
            <mxPoint x="44" y="29" as="sourcePoint" />
            <mxPoint x="51" y="36" as="targetPoint" />
          </mxGeometry>
        </mxCell>
        <mxCell id="pQo0fo5ogEPFuPqu64le-173" value="" style="endArrow=none;html=1;rounded=0;exitX=1;exitY=1;exitDx=0;exitDy=0;entryX=0;entryY=0;entryDx=0;entryDy=0;strokeWidth=0.5;" edge="1" parent="pQo0fo5ogEPFuPqu64le-164" source="pQo0fo5ogEPFuPqu64le-166" target="pQo0fo5ogEPFuPqu64le-169">
          <mxGeometry width="50" height="50" relative="1" as="geometry">
            <mxPoint x="8" y="25" as="sourcePoint" />
            <mxPoint x="15" y="32" as="targetPoint" />
          </mxGeometry>
        </mxCell>
        <mxCell id="pQo0fo5ogEPFuPqu64le-174" value="" style="endArrow=none;html=1;rounded=0;exitX=0.5;exitY=1;exitDx=0;exitDy=0;entryX=0.5;entryY=0;entryDx=0;entryDy=0;strokeWidth=0.5;startArrow=classic;startFill=1;jumpSize=2;endSize=3;startSize=1;" edge="1" parent="pQo0fo5ogEPFuPqu64le-164" source="pQo0fo5ogEPFuPqu64le-166" target="pQo0fo5ogEPFuPqu64le-168">
          <mxGeometry width="50" height="50" relative="1" as="geometry">
            <mxPoint x="64" y="49" as="sourcePoint" />
            <mxPoint x="71" y="56" as="targetPoint" />
          </mxGeometry>
        </mxCell>
        <mxCell id="pQo0fo5ogEPFuPqu64le-175" value="" style="endArrow=classic;html=1;rounded=0;exitX=1;exitY=0;exitDx=0;exitDy=0;entryX=0;entryY=1;entryDx=0;entryDy=0;strokeWidth=0.5;endFill=1;endSize=1;" edge="1" parent="pQo0fo5ogEPFuPqu64le-164" source="pQo0fo5ogEPFuPqu64le-168" target="pQo0fo5ogEPFuPqu64le-169">
          <mxGeometry width="50" height="50" relative="1" as="geometry">
            <mxPoint x="74" y="59" as="sourcePoint" />
            <mxPoint x="81" y="66" as="targetPoint" />
          </mxGeometry>
        </mxCell>
        <mxCell id="pQo0fo5ogEPFuPqu64le-176" value="&lt;font style=&quot;font-size: 5px;&quot;&gt;E&lt;/font&gt;" style="text;html=1;align=center;verticalAlign=middle;whiteSpace=wrap;rounded=0;" vertex="1" parent="pQo0fo5ogEPFuPqu64le-164">
          <mxGeometry y="48" width="10" height="10" as="geometry" />
        </mxCell>
        <mxCell id="pQo0fo5ogEPFuPqu64le-191" value="High Resilience" style="text;html=1;align=center;verticalAlign=middle;whiteSpace=wrap;rounded=0;" vertex="1" parent="1">
          <mxGeometry x="160" y="532" width="60" height="30" as="geometry" />
        </mxCell>
        <mxCell id="pQo0fo5ogEPFuPqu64le-193" value="" style="group" vertex="1" connectable="0" parent="1">
          <mxGeometry x="568" y="517" width="40" height="60" as="geometry" />
        </mxCell>
        <mxCell id="pQo0fo5ogEPFuPqu64le-194" value="" style="ellipse;whiteSpace=wrap;html=1;strokeWidth=0.5;" vertex="1" parent="pQo0fo5ogEPFuPqu64le-193">
          <mxGeometry x="15" width="10" height="10" as="geometry" />
        </mxCell>
        <mxCell id="pQo0fo5ogEPFuPqu64le-195" value="" style="ellipse;whiteSpace=wrap;html=1;strokeWidth=0.5;" vertex="1" parent="pQo0fo5ogEPFuPqu64le-193">
          <mxGeometry y="15" width="10" height="10" as="geometry" />
        </mxCell>
        <mxCell id="pQo0fo5ogEPFuPqu64le-196" value="" style="ellipse;whiteSpace=wrap;html=1;strokeWidth=0.5;" vertex="1" parent="pQo0fo5ogEPFuPqu64le-193">
          <mxGeometry x="30" y="15" width="10" height="10" as="geometry" />
        </mxCell>
        <mxCell id="pQo0fo5ogEPFuPqu64le-197" value="" style="ellipse;whiteSpace=wrap;html=1;strokeWidth=0.5;" vertex="1" parent="pQo0fo5ogEPFuPqu64le-193">
          <mxGeometry y="50" width="10" height="10" as="geometry" />
        </mxCell>
        <mxCell id="pQo0fo5ogEPFuPqu64le-198" value="" style="ellipse;whiteSpace=wrap;html=1;strokeWidth=0.5;" vertex="1" parent="pQo0fo5ogEPFuPqu64le-193">
          <mxGeometry x="15" y="30" width="10" height="10" as="geometry" />
        </mxCell>
        <mxCell id="pQo0fo5ogEPFuPqu64le-199" value="" style="endArrow=none;dashed=1;html=1;rounded=0;exitX=1;exitY=1;exitDx=0;exitDy=0;entryX=0;entryY=0;entryDx=0;entryDy=0;strokeWidth=0.5;" edge="1" parent="pQo0fo5ogEPFuPqu64le-193" source="pQo0fo5ogEPFuPqu64le-194" target="pQo0fo5ogEPFuPqu64le-196">
          <mxGeometry width="50" height="50" relative="1" as="geometry">
            <mxPoint x="135" y="20" as="sourcePoint" />
            <mxPoint x="185" y="-30" as="targetPoint" />
          </mxGeometry>
        </mxCell>
        <mxCell id="pQo0fo5ogEPFuPqu64le-200" value="" style="endArrow=none;dashed=1;html=1;rounded=0;exitX=0;exitY=1;exitDx=0;exitDy=0;entryX=1;entryY=0;entryDx=0;entryDy=0;strokeWidth=0.5;" edge="1" parent="pQo0fo5ogEPFuPqu64le-193" source="pQo0fo5ogEPFuPqu64le-196" target="pQo0fo5ogEPFuPqu64le-198">
          <mxGeometry width="50" height="50" relative="1" as="geometry">
            <mxPoint x="44" y="29" as="sourcePoint" />
            <mxPoint x="51" y="36" as="targetPoint" />
          </mxGeometry>
        </mxCell>
        <mxCell id="pQo0fo5ogEPFuPqu64le-201" value="" style="endArrow=none;dashed=1;html=1;rounded=0;exitX=0.882;exitY=0.984;exitDx=0;exitDy=0;entryX=0.149;entryY=0.269;entryDx=0;entryDy=0;strokeWidth=0.5;entryPerimeter=0;exitPerimeter=0;" edge="1" parent="pQo0fo5ogEPFuPqu64le-193" source="pQo0fo5ogEPFuPqu64le-195" target="pQo0fo5ogEPFuPqu64le-198">
          <mxGeometry width="50" height="50" relative="1" as="geometry">
            <mxPoint x="8" y="25" as="sourcePoint" />
            <mxPoint x="15" y="32" as="targetPoint" />
          </mxGeometry>
        </mxCell>
        <mxCell id="pQo0fo5ogEPFuPqu64le-202" value="" style="endArrow=none;dashed=1;html=1;rounded=0;exitX=0.5;exitY=1;exitDx=0;exitDy=0;entryX=0.5;entryY=0;entryDx=0;entryDy=0;strokeWidth=0.5;startArrow=classic;startFill=1;jumpSize=2;endSize=3;startSize=1;" edge="1" parent="pQo0fo5ogEPFuPqu64le-193" source="pQo0fo5ogEPFuPqu64le-195" target="pQo0fo5ogEPFuPqu64le-197">
          <mxGeometry width="50" height="50" relative="1" as="geometry">
            <mxPoint x="64" y="49" as="sourcePoint" />
            <mxPoint x="71" y="56" as="targetPoint" />
          </mxGeometry>
        </mxCell>
        <mxCell id="pQo0fo5ogEPFuPqu64le-203" value="" style="endArrow=classic;dashed=1;html=1;rounded=0;exitX=1;exitY=0;exitDx=0;exitDy=0;entryX=0;entryY=1;entryDx=0;entryDy=0;strokeWidth=0.5;endFill=1;endSize=1;" edge="1" parent="pQo0fo5ogEPFuPqu64le-193" source="pQo0fo5ogEPFuPqu64le-197" target="pQo0fo5ogEPFuPqu64le-198">
          <mxGeometry width="50" height="50" relative="1" as="geometry">
            <mxPoint x="74" y="59" as="sourcePoint" />
            <mxPoint x="81" y="66" as="targetPoint" />
          </mxGeometry>
        </mxCell>
        <mxCell id="pQo0fo5ogEPFuPqu64le-204" value="&lt;font style=&quot;font-size: 5px;&quot;&gt;E&lt;/font&gt;" style="text;html=1;align=center;verticalAlign=middle;whiteSpace=wrap;rounded=0;" vertex="1" parent="pQo0fo5ogEPFuPqu64le-193">
          <mxGeometry y="48" width="10" height="10" as="geometry" />
        </mxCell>
        <mxCell id="pQo0fo5ogEPFuPqu64le-217" value="" style="group" vertex="1" connectable="0" parent="1">
          <mxGeometry x="508" y="517" width="40" height="60" as="geometry" />
        </mxCell>
        <mxCell id="pQo0fo5ogEPFuPqu64le-218" value="" style="ellipse;whiteSpace=wrap;html=1;strokeWidth=0.5;" vertex="1" parent="pQo0fo5ogEPFuPqu64le-217">
          <mxGeometry x="15" width="10" height="10" as="geometry" />
        </mxCell>
        <mxCell id="pQo0fo5ogEPFuPqu64le-219" value="" style="ellipse;whiteSpace=wrap;html=1;strokeWidth=0.5;" vertex="1" parent="pQo0fo5ogEPFuPqu64le-217">
          <mxGeometry y="15" width="10" height="10" as="geometry" />
        </mxCell>
        <mxCell id="pQo0fo5ogEPFuPqu64le-220" value="" style="ellipse;whiteSpace=wrap;html=1;strokeWidth=0.5;" vertex="1" parent="pQo0fo5ogEPFuPqu64le-217">
          <mxGeometry x="30" y="15" width="10" height="10" as="geometry" />
        </mxCell>
        <mxCell id="pQo0fo5ogEPFuPqu64le-221" value="" style="ellipse;whiteSpace=wrap;html=1;strokeWidth=0.5;" vertex="1" parent="pQo0fo5ogEPFuPqu64le-217">
          <mxGeometry y="50" width="10" height="10" as="geometry" />
        </mxCell>
        <mxCell id="pQo0fo5ogEPFuPqu64le-222" value="" style="ellipse;whiteSpace=wrap;html=1;strokeWidth=0.5;" vertex="1" parent="pQo0fo5ogEPFuPqu64le-217">
          <mxGeometry x="15" y="30" width="10" height="10" as="geometry" />
        </mxCell>
        <mxCell id="pQo0fo5ogEPFuPqu64le-223" value="" style="endArrow=none;dashed=1;html=1;rounded=0;exitX=1;exitY=1;exitDx=0;exitDy=0;entryX=0;entryY=0;entryDx=0;entryDy=0;strokeWidth=0.5;" edge="1" parent="pQo0fo5ogEPFuPqu64le-217" source="pQo0fo5ogEPFuPqu64le-218" target="pQo0fo5ogEPFuPqu64le-220">
          <mxGeometry width="50" height="50" relative="1" as="geometry">
            <mxPoint x="135" y="20" as="sourcePoint" />
            <mxPoint x="185" y="-30" as="targetPoint" />
          </mxGeometry>
        </mxCell>
        <mxCell id="pQo0fo5ogEPFuPqu64le-224" value="" style="endArrow=none;dashed=1;html=1;rounded=0;exitX=0;exitY=1;exitDx=0;exitDy=0;entryX=1;entryY=0;entryDx=0;entryDy=0;strokeWidth=0.5;" edge="1" parent="pQo0fo5ogEPFuPqu64le-217" source="pQo0fo5ogEPFuPqu64le-220" target="pQo0fo5ogEPFuPqu64le-222">
          <mxGeometry width="50" height="50" relative="1" as="geometry">
            <mxPoint x="44" y="29" as="sourcePoint" />
            <mxPoint x="51" y="36" as="targetPoint" />
          </mxGeometry>
        </mxCell>
        <mxCell id="pQo0fo5ogEPFuPqu64le-225" value="" style="endArrow=none;dashed=1;html=1;rounded=0;exitX=0.882;exitY=0.984;exitDx=0;exitDy=0;entryX=0.149;entryY=0.269;entryDx=0;entryDy=0;strokeWidth=0.5;entryPerimeter=0;exitPerimeter=0;" edge="1" parent="pQo0fo5ogEPFuPqu64le-217" source="pQo0fo5ogEPFuPqu64le-219" target="pQo0fo5ogEPFuPqu64le-222">
          <mxGeometry width="50" height="50" relative="1" as="geometry">
            <mxPoint x="8" y="25" as="sourcePoint" />
            <mxPoint x="15" y="32" as="targetPoint" />
          </mxGeometry>
        </mxCell>
        <mxCell id="pQo0fo5ogEPFuPqu64le-226" value="" style="endArrow=none;dashed=1;html=1;rounded=0;exitX=0.5;exitY=1;exitDx=0;exitDy=0;entryX=0.5;entryY=0;entryDx=0;entryDy=0;strokeWidth=0.5;startArrow=classic;startFill=1;jumpSize=2;endSize=3;startSize=1;" edge="1" parent="pQo0fo5ogEPFuPqu64le-217" source="pQo0fo5ogEPFuPqu64le-219" target="pQo0fo5ogEPFuPqu64le-221">
          <mxGeometry width="50" height="50" relative="1" as="geometry">
            <mxPoint x="64" y="49" as="sourcePoint" />
            <mxPoint x="71" y="56" as="targetPoint" />
          </mxGeometry>
        </mxCell>
        <mxCell id="pQo0fo5ogEPFuPqu64le-227" value="" style="endArrow=classic;dashed=1;html=1;rounded=0;exitX=1;exitY=0;exitDx=0;exitDy=0;entryX=0;entryY=1;entryDx=0;entryDy=0;strokeWidth=0.5;endFill=1;endSize=1;" edge="1" parent="pQo0fo5ogEPFuPqu64le-217" source="pQo0fo5ogEPFuPqu64le-221" target="pQo0fo5ogEPFuPqu64le-222">
          <mxGeometry width="50" height="50" relative="1" as="geometry">
            <mxPoint x="74" y="59" as="sourcePoint" />
            <mxPoint x="81" y="66" as="targetPoint" />
          </mxGeometry>
        </mxCell>
        <mxCell id="pQo0fo5ogEPFuPqu64le-228" value="&lt;font style=&quot;font-size: 5px;&quot;&gt;E&lt;/font&gt;" style="text;html=1;align=center;verticalAlign=middle;whiteSpace=wrap;rounded=0;" vertex="1" parent="pQo0fo5ogEPFuPqu64le-217">
          <mxGeometry y="48" width="10" height="10" as="geometry" />
        </mxCell>
        <mxCell id="pQo0fo5ogEPFuPqu64le-229" value="" style="shape=flexArrow;endArrow=classic;html=1;rounded=0;fillColor=#f5f5f5;strokeColor=#666666;" edge="1" parent="1">
          <mxGeometry width="50" height="50" relative="1" as="geometry">
            <mxPoint x="220" y="546.81" as="sourcePoint" />
            <mxPoint x="260" y="546.81" as="targetPoint" />
          </mxGeometry>
        </mxCell>
        <mxCell id="pQo0fo5ogEPFuPqu64le-230" value="" style="shape=flexArrow;endArrow=classic;html=1;rounded=0;fillColor=#f5f5f5;strokeColor=#666666;" edge="1" parent="1">
          <mxGeometry width="50" height="50" relative="1" as="geometry">
            <mxPoint x="220" y="639.81" as="sourcePoint" />
            <mxPoint x="260" y="639.81" as="targetPoint" />
          </mxGeometry>
        </mxCell>
      </root>
    </mxGraphModel>
  </diagram>
</mxfile>
